<?xml version="1.0" standalone="no"?>
<!DOCTYPE svg PUBLIC "-//W3C//DTD SVG 20010904//EN"
 "http://www.w3.org/TR/2001/REC-SVG-20010904/DTD/svg10.dtd">
<svg version="1.0" xmlns="http://www.w3.org/2000/svg"
 width="200.000000pt" height="200.000000pt" viewBox="0 0 200.000000 200.000000"
 preserveAspectRatio="xMidYMid meet">
<metadata>
Created by potrace 1.11, written by Peter Selinger 2001-2013
</metadata>
<g transform="translate(0.000000,200.000000) scale(0.100000,-0.100000)"
fill="#000000" stroke="none">
<path d="M286 1310 c-109 -53 -173 -140 -183 -249 -13 -146 82 -277 229 -314
62 -16 72 -39 18 -47 -29 -4 -36 -10 -38 -32 -3 -26 -2 -26 62 -30 89 -4 111
2 111 32 0 22 -5 25 -37 28 -50 4 -54 36 -5 46 85 16 183 71 126 71 -25 0 -20
30 9 49 34 22 76 81 68 94 -15 25 -46 19 -70 -13 -72 -94 -221 -83 -282 21
-46 79 -28 177 44 232 30 23 45 27 101 27 55 0 72 -4 99 -25 34 -25 58 -62 72
-111 7 -22 4 -28 -15 -37 -23 -11 -25 -8 -55 71 -18 45 -33 83 -35 85 -1 1
-33 -11 -70 -28 -67 -30 -104 -60 -106 -87 -5 -49 -4 -61 9 -88 32 -70 114
-88 179 -39 18 14 38 22 43 19 6 -4 33 1 60 11 52 19 55 23 50 87 -5 73 -63
152 -137 187 -36 17 -61 21 -109 18 -67 -3 -84 3 -66 25 11 13 7 28 -7 27 -3
-1 -32 -14 -65 -30z m64 -32 c0 -4 -8 -9 -18 -12 -10 -4 -33 -21 -52 -39 -117
-114 -83 -314 64 -383 54 -25 126 -31 169 -15 20 8 27 6 31 -6 8 -21 7 -22
-61 -43 -183 -56 -358 69 -356 256 2 107 54 190 153 243 51 28 69 28 70 -1z
m139 -195 c11 -39 2 -66 -27 -82 -42 -22 -95 37 -71 80 11 21 68 51 81 43 4
-3 12 -21 17 -41z"/>
<path d="M1750 1063 c0 -76 3 -93 15 -93 12 0 15 17 15 93 0 77 -3 94 -15 94
-12 0 -15 -17 -15 -94z"/>
<path d="M694 1135 c-3 -7 -4 -45 -2 -86 l3 -74 60 -3 c50 -2 64 1 83 18 12
11 22 26 23 33 0 7 2 25 3 41 1 18 -6 39 -19 54 -17 20 -31 24 -84 26 -41 2
-64 -1 -67 -9z m120 -31 c11 -4 16 -19 16 -45 0 -44 -15 -55 -69 -55 l-35 1
-2 53 -3 52 39 0 c21 0 45 -3 54 -6z"/>
<path d="M1237 1142 c-16 -3 -17 -14 -15 -85 l3 -82 68 -3 c82 -4 102 8 92 52
-3 17 -7 46 -9 64 -1 18 -8 38 -14 44 -11 11 -91 18 -125 10z m103 -52 c-8
-15 -19 -19 -43 -17 -24 1 -32 -2 -35 -17 -2 -10 0 -16 5 -13 17 10 88 -8 88
-23 0 -11 -13 -15 -52 -16 l-53 -1 0 54 0 53 50 0 c48 0 50 -1 40 -20z"/>
<path d="M1475 1102 c-51 -4 -65 -17 -65 -59 0 -58 14 -73 70 -73 40 0 52 4
64 23 8 12 13 31 11 42 -2 11 -4 27 -4 35 -1 23 -31 35 -76 32z m47 -50 c8
-30 -6 -47 -39 -49 -27 -1 -34 3 -39 22 -8 33 2 45 40 45 24 0 35 -5 38 -18z"/>
<path d="M900 1085 c-16 -19 -15 -82 1 -101 16 -19 89 -19 89 0 0 9 -12 16
-32 18 -29 3 -33 7 -36 36 -3 31 -2 32 37 32 23 0 41 -4 41 -10 0 -10 -20 -14
-53 -12 -12 1 -17 -4 -15 -15 4 -21 51 -25 78 -6 22 16 26 43 8 61 -18 18
-103 15 -118 -3z"/>
<path d="M1052 1038 l3 -63 30 2 c39 3 71 29 102 81 25 42 25 42 4 42 -13 0
-25 -9 -30 -22 -12 -31 -49 -68 -67 -68 -12 0 -15 10 -12 42 2 35 -1 43 -15
46 -16 3 -18 -3 -15 -60z"/>
<path d="M1592 1088 c-7 -7 -12 -31 -12 -55 0 -49 17 -63 74 -63 41 0 77 29
71 57 -16 78 -11 73 -68 73 -29 0 -58 -5 -65 -12z m96 -50 c-3 -30 -6 -33 -38
-33 -32 0 -35 3 -38 33 -3 31 -3 32 38 32 41 0 41 -1 38 -32z"/>
<path d="M1818 1077 c-16 -13 -28 -27 -28 -33 0 -16 64 -74 83 -74 25 0 21 11
-14 44 l-30 29 33 28 c33 28 33 28 8 28 -14 0 -37 -10 -52 -22z"/>
</g>
</svg>
